<svg width="11" height="11" viewBox="0 0 11 11" fill="none" xmlns="http://www.w3.org/2000/svg">
<path fill-rule="evenodd" clip-rule="evenodd" d="M5.50002 0.916656C8.03002 0.916656 10.0834 2.97457 10.0834 5.49999L10.0816 5.62822C10.0136 8.099 7.98714 10.0833 5.50002 10.0833C2.9746 10.0833 0.916687 8.02999 0.916687 5.49999C0.916687 2.97457 2.9746 0.916656 5.50002 0.916656ZM3.66669 6.40749C3.80419 6.54041 4.0196 6.54041 4.15252 6.40291L5.50002 5.05082L6.84752 6.40291C6.98044 6.54041 7.20044 6.54041 7.33335 6.40749C7.47085 6.26999 7.47085 6.05457 7.33335 5.92166L5.74294 4.32207C5.67877 4.25791 5.59169 4.22124 5.50002 4.22124C5.40835 4.22124 5.32127 4.25791 5.2571 4.32207L3.66669 5.92166C3.59794 5.98582 3.56585 6.07291 3.56585 6.15999C3.56585 6.25166 3.59794 6.33874 3.66669 6.40749Z" fill="#FF647C"/>
</svg>
